# xmcd
#
# Track frame offsets: 
#        150
#        19837
#        39426
#        58514
#        79013
#        96828
#        113213
#        131022
#        147929
#        166720
#        184173
#        205175
#        224245
#        243683
#        264573
#        283405
#        303763
#
# Disc length: 4332 seconds
#
# Revision: 3
# Processed by: cddbd v1.5.2PL0 Copyright (c) Steve Scherf et al.
# Submitted via: ExactAudioCopy v1.3
#
DISCID=fd10ea11
DTITLE=張敬軒 - 是時候 CD1
DYEAR=2013
DGENRE=Pop
TTITLE0=溫馨提示
TTITLE1=塵埃落定
TTITLE2=夜機
TTITLE3=我和秋天有個約會
TTITLE4=Stop The Time
TTITLE5=井[Piano version]
TTITLE6=紅
TTITLE7=Deadline
TTITLE8=P.S. I Love You
TTITLE9=壯舉
TTITLE10=惜愛
TTITLE11=只是太愛你
TTITLE12=春秋
TTITLE13=婚紗背後
TTITLE14=怎麼可
TTITLE15=Yes and No[Summer Version]
TTITLE16=張敬軒 and 王菀之 - 高八度
EXTD=
EXTT0=
EXTT1=
EXTT2=
EXTT3=
EXTT4=
EXTT5=
EXTT6=
EXTT7=
EXTT8=
EXTT9=
EXTT10=
EXTT11=
EXTT12=
EXTT13=
EXTT14=
EXTT15=
EXTT16=
PLAYORDER=
